<svg width="32" height="32" viewBox="0 0 32 32" xmlns="http://www.w3.org/2000/svg">
  <rect width="32" height="32" rx="7" fill="#ffffff"/>
  <path
    fill-rule="evenodd"
    clip-rule="evenodd"
    d="M12.4482 7.39374C12.4482 5.83855 13.6956 4.59115 15.2508 4.59115C16.8024 4.59115 18.0515 5.84879 18.0535 7.39025C18.041 8.90243 16.8742 10.1155 15.4232 10.1938C15.306 10.1826 15.1855 10.1824 15.0682 10.1933C13.6048 10.1034 12.4482 8.894 12.4482 7.39374ZM15.2508 2.63486C12.6155 2.63486 10.492 4.75816 10.492 7.39374C10.492 9.97211 12.5214 12.0597 15.0689 12.1521C15.1272 12.1542 15.1857 12.1511 15.2435 12.1428C15.299 12.1507 15.355 12.1539 15.411 12.1523C17.9714 12.078 19.991 9.96606 20.0093 7.40079V7.39374C20.0093 4.77536 17.8884 2.63486 15.2508 2.63486ZM22.3171 17.8906C21.1895 19.018 19.6603 19.6515 18.065 19.6515H16.3242C16.3989 19.1986 16.5254 18.7548 16.7018 18.3289C17.0039 17.5995 17.4467 16.9367 18.0049 16.3785C18.5632 15.8203 19.226 15.3775 19.9554 15.0754C20.6848 14.7733 21.4667 14.6178 22.2569 14.6178H23.9976C23.7944 15.8496 23.2115 16.9965 22.3171 17.8906ZM23.7002 19.2737C22.707 20.2669 21.4789 20.9707 20.1463 21.3312C20.4062 21.5334 20.6538 21.752 20.8875 21.9857C21.6276 22.7258 22.2146 23.6043 22.6151 24.5711C23.0156 25.5379 23.2217 26.574 23.2217 27.6205V30.4201V31.3983H22.2435C20.1297 31.3983 18.1025 30.5586 16.6084 29.0645C15.1143 27.5704 14.2746 25.5433 14.2746 23.4295V21.6084H12.4667H12.4647C10.3539 21.6041 8.33091 20.7625 6.84038 19.2688C5.34993 17.775 4.51286 15.7503 4.51286 13.6395V12.6614H5.49102H8.27602C10.3898 12.6614 12.4171 13.501 13.9112 14.9951C14.4516 15.5356 14.9065 16.1457 15.267 16.8044C15.6299 16.1411 16.0862 15.5315 16.6229 14.995C17.363 14.2549 18.2414 13.6679 19.2082 13.2674C20.1749 12.8669 21.2112 12.6608 22.2569 12.6608H25.0565H26.0346V13.639C26.0346 15.7528 25.1948 17.7798 23.7002 19.2737ZM8.2263 17.8864C7.33444 16.993 6.75295 15.848 6.55015 14.6181H8.27602C9.87136 14.6181 11.4005 15.2515 12.5281 16.3791C13.4225 17.2732 14.0054 18.42 14.2085 19.652H12.4676C10.875 19.6484 9.34951 19.0135 8.2263 17.8864ZM16.231 23.4295C16.231 25.0248 16.8645 26.5541 17.992 27.6817C18.8862 28.5761 20.0331 29.159 21.265 29.3622V27.6205C21.265 26.8303 21.1095 26.0484 20.8074 25.319C20.5053 24.5896 20.0625 23.9268 19.5043 23.3686C18.946 22.8104 18.2832 22.3676 17.5538 22.0655C17.1279 21.8891 16.6841 21.7627 16.231 21.688V23.4295Z"
    fill="#008080"
    transform="translate(0 -1)"
  />
</svg>
