<svg width="96" height="18" viewBox="0 0 96 18" fill="none" xmlns="http://www.w3.org/2000/svg">
<path fill-rule="evenodd" clip-rule="evenodd" d="M4.57749 2.74582C4.57749 1.8486 5.29704 1.12904 6.19427 1.12904C7.08943 1.12904 7.80993 1.85451 7.81104 2.74381C7.80381 3.61616 7.13057 4.31607 6.29366 4.36122C6.22606 4.35473 6.15656 4.35462 6.0889 4.36096C5.24491 4.30909 4.57749 3.6113 4.57749 2.74582ZM6.19427 0.000488281C4.67377 0.000488281 3.44888 1.22527 3.44888 2.74582C3.44888 4.23336 4.61948 5.43754 6.08932 5.49083C6.12297 5.49205 6.15671 5.49025 6.19004 5.48545C6.22205 5.49004 6.25437 5.49189 6.28669 5.49094C7.76404 5.44811 8.92903 4.22987 8.9396 2.74989V2.74582C8.9396 1.2352 7.71624 0.000488281 6.19427 0.000488281ZM10.2699 8.79944C9.61948 9.4498 8.73737 9.81523 7.81754 9.81523H6.81336C6.85646 9.55401 6.9294 9.29802 7.03117 9.05232C7.20546 8.63154 7.46093 8.24921 7.78294 7.92714C8.10501 7.60513 8.48734 7.34966 8.90812 7.17537C9.3289 7.00108 9.77988 6.91135 10.2353 6.91135H11.2395C11.1223 7.62193 10.7857 8.28359 10.2699 8.79944ZM11.0679 9.59742C10.4951 10.1702 9.78675 10.5762 9.01819 10.7842C9.16807 10.9008 9.31089 11.0269 9.44572 11.1617C9.87258 11.5886 10.2112 12.0953 10.4422 12.653C10.6732 13.2107 10.7921 13.8084 10.7921 14.4121V16.0268V16.591H10.2278C9.00868 16.591 7.83951 16.1067 6.97746 15.2447C6.11541 14.3826 5.6311 13.2135 5.6311 11.9943V10.9439H4.58826H4.5871C3.36966 10.9414 2.20292 10.456 1.34293 9.5942C0.482995 8.73242 0 7.56467 0 6.34723V5.78296H0.564277H2.17049C3.38962 5.78296 4.55884 6.26722 5.42089 7.12927C5.73261 7.44103 5.99494 7.79294 6.20287 8.17289C6.41223 7.7903 6.67536 7.43871 6.98496 7.12916C7.41181 6.70231 7.91852 6.36371 8.47625 6.1327C9.03392 5.90168 9.63168 5.7828 10.2353 5.7828H11.85H12.4143V6.34707C12.4143 7.56621 11.9299 8.73537 11.0679 9.59742ZM2.14181 8.79701C1.62739 8.28148 1.29175 7.62087 1.17477 6.91151H2.17049C3.09032 6.91151 3.97244 7.27688 4.62286 7.9273C5.1387 8.44315 5.47529 9.10476 5.59244 9.81539H4.58879C3.67049 9.81328 2.79049 9.44706 2.14181 8.79701ZM6.75965 11.9943C6.75965 12.9141 7.12508 13.7963 7.77544 14.4467C8.29129 14.9625 8.95296 15.2991 9.66353 15.4163V14.4121C9.66353 13.9566 9.5738 13.5056 9.39951 13.0849C9.22522 12.6641 8.96975 12.2818 8.64774 11.9597C8.32567 11.6377 7.94334 11.3822 7.52257 11.2079C7.27687 11.1061 7.02088 11.0332 6.75965 10.9902V11.9943Z" fill="#008080"/>
<path d="M93.4844 9.42694V0.000488281H95.801V9.42694H93.4844Z" fill="#003845"/>
<path d="M87.9931 9.60309C86.6462 9.60309 85.7578 8.83549 85.7578 7.65045C85.7578 6.57317 86.202 5.85943 88.0607 5.5497L89.5956 5.28038C90.2014 5.17263 90.3768 5.01106 90.3768 4.66093C90.3768 4.25692 90.1343 4.01454 89.3532 4.01454C88.545 4.01454 88.1547 4.33773 88.141 4.93025H85.8925C85.9596 3.50283 87.2119 2.47937 89.3262 2.47937C91.4675 2.47937 92.5043 3.35468 92.5043 4.88984V7.56964C92.5043 8.28337 92.5582 8.87589 92.6258 9.428H90.6324C90.5653 9.03746 90.5247 8.57963 90.5247 8.02752C90.1882 9.01058 89.3532 9.60309 87.9931 9.60309ZM88.0338 7.38113C88.0338 7.85243 88.4104 8.09487 88.8683 8.09487C89.7435 8.09487 90.3768 7.47541 90.3768 6.26344V6.00753C90.0398 6.24997 89.7435 6.33073 89.313 6.43848L88.9359 6.53276C88.2757 6.69433 88.0338 6.92325 88.0338 7.38113Z" fill="#003845"/>
<path d="M77.9297 6.06141C77.9297 4.24345 78.9528 2.47937 81.7405 2.47937C84.1913 2.47937 85.3766 3.85297 85.4167 5.53624H83.1408C83.0869 4.74174 82.6696 4.28386 81.7807 4.28386C80.8115 4.28386 80.2458 4.7148 80.2458 6.06141C80.2458 7.40807 80.7708 7.83896 81.7405 7.83896C82.6966 7.83896 83.1006 7.31379 83.1677 6.57317H85.4436C85.4035 8.17563 84.2853 9.64345 81.7807 9.64345C78.9935 9.64345 77.9297 7.87937 77.9297 6.06141Z" fill="#003845"/>
<path d="M74.962 9.42605V2.69291H77.2781V9.42605H74.962ZM74.9219 1.87143V0.470947H77.332V1.87143H74.9219Z" fill="#003845"/>
<path d="M69.2013 2.47831C70.3458 2.47831 71.1133 2.9092 71.5712 3.62293V0.000488281H73.8873V9.42694H71.5712V8.49776C71.1133 9.22496 70.3458 9.64238 69.2013 9.64238C66.9924 9.64238 66.1172 7.97258 66.1172 6.04688C66.1172 4.17504 66.9924 2.47831 69.2013 2.47831ZM68.4338 6.06035C68.4338 7.31272 68.8373 7.8379 69.9824 7.8379C71.1672 7.8379 71.5712 7.25885 71.5712 6.06035C71.5712 4.86184 71.1672 4.28279 69.9824 4.28279C68.8373 4.28279 68.4338 4.80797 68.4338 6.06035Z" fill="#003845"/>
<path d="M62.1465 9.64345C59.4126 9.64345 58.4297 7.89284 58.4297 6.04794C58.4297 4.09535 59.5605 2.47937 62.1465 2.47937C64.8936 2.47937 65.7688 4.21651 65.7688 6.08835C65.7688 6.30385 65.7551 6.50582 65.7281 6.65393H60.6787C60.8134 7.73126 61.3516 8.09487 62.2004 8.09487C62.887 8.09487 63.3043 7.79861 63.4929 7.3946H65.7419C65.5264 8.5527 64.5973 9.64345 62.1465 9.64345ZM60.7056 5.30732H63.5737C63.4929 4.45895 63.0756 4.00107 62.1867 4.00107C61.3384 4.00107 60.8535 4.33773 60.7056 5.30732Z" fill="#003845"/>
<path d="M57.6764 0.470947V9.42605H55.3065V2.00611L53.152 9.42605H50.4989L48.331 1.96571V9.42605H45.9609V0.470947H50.041L51.859 6.88094L53.6908 0.470947H57.6764Z" fill="#003845"/>
<path d="M36.1308 6.51883C36.1982 7.25951 36.683 7.93278 37.9353 7.93278C39.08 7.93278 39.5109 7.52883 39.5109 6.90937C39.5109 6.31686 39.1608 6.0206 38.4874 5.92632L36.5349 5.71087C34.9189 5.52231 33.9897 4.6066 33.9897 3.08495C33.9897 1.40163 35.2555 0.24353 37.8411 0.24353C40.6017 0.24353 41.7059 1.56325 41.8271 3.15224H39.484C39.3897 2.43856 38.8511 1.96721 37.8411 1.96721C36.9253 1.96721 36.3867 2.33081 36.3867 2.92333C36.3867 3.38121 36.656 3.71782 37.3428 3.79863L39.053 3.97373C41.0191 4.16223 41.9079 5.09142 41.9079 6.7074C41.9079 8.47148 40.8037 9.65651 37.8949 9.65651C34.9458 9.65651 33.9224 8.12135 33.8281 6.51883H36.1308Z" fill="#003845"/>
<path d="M28.3388 5.73626V7.55421H33.1732V9.42605H25.9688V0.470947H33.1328V2.34278H28.3388V3.99911H32.7289V5.73626H28.3388Z" fill="#003845"/>
<path d="M20.488 9.64304C17.0272 9.64304 15.7344 7.42108 15.7344 4.95673C15.7344 2.55972 17.0406 0.24353 20.5014 0.24353C23.7065 0.24353 24.9723 1.52285 25.1608 4.09489H22.7234C22.6157 2.88292 22.104 2.18271 20.5419 2.18271C18.9125 2.18271 18.2122 3.11183 18.2122 4.95673C18.2122 6.77469 18.8586 7.71734 20.4745 7.71734C22.077 7.71734 22.6561 7.04401 22.7504 5.73781H25.2147C24.9992 8.48495 23.7738 9.64304 20.488 9.64304Z" fill="#003845"/>
<path d="M94.3913 16.5908C93.1728 16.5908 92.7344 15.8104 92.7344 14.9881C92.7344 14.1176 93.2388 13.3972 94.3913 13.3972C95.6156 13.3972 96.0059 14.1716 96.0059 15.006C96.0059 15.1021 96.0001 15.1921 95.988 15.2582H93.7369C93.7971 15.7384 94.0369 15.9005 94.4151 15.9005C94.7214 15.9005 94.9073 15.7684 94.9913 15.5883H95.9938C95.8982 16.1046 95.4836 16.5908 94.3913 16.5908ZM93.749 14.6579H95.0277C94.9913 14.2797 94.8054 14.0756 94.4092 14.0756C94.0311 14.0756 93.815 14.2256 93.749 14.6579Z" fill="#008080"/>
<path d="M91.3828 16.4949V12.2927H92.4154V16.4949H91.3828Z" fill="#008080"/>
<path d="M89.6608 16.5908C89.1569 16.5908 88.8204 16.3987 88.6102 16.0806V17.6954H87.5781V13.4933H88.6102V13.8955C88.8204 13.5834 89.1569 13.3972 89.6608 13.3972C90.6516 13.3972 91.0414 14.1356 91.0414 15C91.0414 15.8345 90.6516 16.5908 89.6608 16.5908ZM88.6102 14.994C88.6102 15.5283 88.7903 15.7864 89.319 15.7864C89.8293 15.7864 90.003 15.5523 90.003 14.994C90.003 14.4357 89.8293 14.2016 89.319 14.2016C88.7903 14.2016 88.6102 14.4598 88.6102 14.994Z" fill="#008080"/>
<path d="M85.5589 16.5908C84.2801 16.5908 83.8359 15.8044 83.8359 14.994C83.8359 14.1897 84.2801 13.3972 85.5589 13.3972C86.8313 13.3972 87.276 14.1897 87.276 14.994C87.276 15.7984 86.8313 16.5908 85.5589 16.5908ZM84.8685 14.994C84.8685 15.5944 85.0666 15.7864 85.5589 15.7864C86.0453 15.7864 86.2434 15.5944 86.2434 14.994C86.2434 14.3937 86.0453 14.2016 85.5589 14.2016C85.0666 14.2016 84.8685 14.3937 84.8685 14.994Z" fill="#008080"/>
<path d="M82.11 16.5908C80.8915 16.5908 80.4531 15.8104 80.4531 14.9881C80.4531 14.1176 80.9575 13.3972 82.11 13.3972C83.3344 13.3972 83.7247 14.1716 83.7247 15.006C83.7247 15.1021 83.7189 15.1921 83.7067 15.2582H81.4556C81.5158 15.7384 81.7556 15.9005 82.1338 15.9005C82.4402 15.9005 82.6261 15.7684 82.7101 15.5883H83.7125C83.6169 16.1046 83.2023 16.5908 82.11 16.5908ZM81.4678 14.6579H82.7465C82.7101 14.2797 82.5241 14.0756 82.128 14.0756C81.7498 14.0756 81.5338 14.2256 81.4678 14.6579Z" fill="#008080"/>
<path d="M79.03 12.5033C79.948 12.5033 80.3146 13.0976 80.3146 13.8239C80.3146 14.5983 79.948 15.1927 79.03 15.1927H77.8654V16.4953H76.7969V12.5033H79.03ZM77.8654 14.3762H78.6756C79.0596 14.3762 79.2102 14.1421 79.2102 13.8299C79.2102 13.5238 79.066 13.3137 78.6878 13.3137H77.8654V14.3762Z" fill="#008080"/>
<path d="M73.7969 16.4949V12.2927H74.8295V16.4949H73.7969Z" fill="#008080"/>
<path d="M71.379 16.5728C70.7789 16.5728 70.3828 16.2307 70.3828 15.7024C70.3828 15.2221 70.5809 14.904 71.4091 14.7659L72.0936 14.6458C72.3635 14.5978 72.4417 14.5258 72.4417 14.3697C72.4417 14.1897 72.3339 14.0816 71.9853 14.0816C71.6251 14.0816 71.4513 14.2256 71.445 14.4898H70.4425C70.4726 13.8535 71.0309 13.3972 71.9737 13.3972C72.9281 13.3972 73.3903 13.7874 73.3903 14.4718V15.6663C73.3903 15.9845 73.4141 16.2487 73.4442 16.4948H72.5558C72.5257 16.3207 72.5077 16.1166 72.5077 15.8705C72.3577 16.3087 71.9853 16.5728 71.379 16.5728ZM71.3975 15.5823C71.3975 15.7924 71.5654 15.9005 71.7693 15.9005C72.1596 15.9005 72.4417 15.6244 72.4417 15.0841V14.97C72.2917 15.0781 72.1596 15.1141 71.9674 15.1621L71.7994 15.2041C71.5052 15.2762 71.3975 15.3782 71.3975 15.5823Z" fill="#008080"/>
<path d="M66.8672 14.994C66.8672 14.1836 67.323 13.3972 68.5658 13.3972C69.6586 13.3972 70.1868 14.0095 70.2048 14.7599H69.1901C69.1664 14.4057 68.9799 14.2016 68.5838 14.2016C68.1517 14.2016 67.8993 14.3937 67.8993 14.994C67.8993 15.5944 68.1338 15.7864 68.5658 15.7864C68.9921 15.7864 69.1722 15.5523 69.2023 15.2221H70.2169C70.1984 15.9365 69.7004 16.5908 68.5838 16.5908C67.3415 16.5908 66.8672 15.8044 66.8672 14.994Z" fill="#008080"/>
<path d="M65.0042 16.5908C63.7255 16.5908 63.2812 15.8044 63.2812 14.994C63.2812 14.1897 63.7255 13.3972 65.0042 13.3972C66.2771 13.3972 66.7213 14.1897 66.7213 14.994C66.7213 15.7984 66.2771 16.5908 65.0042 16.5908ZM64.3138 14.994C64.3138 15.5944 64.5119 15.7864 65.0042 15.7864C65.4906 15.7864 65.6887 15.5944 65.6887 14.994C65.6887 14.3937 65.4906 14.2016 65.0042 14.2016C64.5119 14.2016 64.3138 14.3937 64.3138 14.994Z" fill="#008080"/>
<path d="M60.2656 16.4953V12.5033H61.3341V15.6608H63.1289V16.4953H60.2656Z" fill="#008080"/>
<path d="M56.4219 16.4951V13.4936H57.4244V14.0939C57.5443 13.6797 57.7904 13.4456 58.2705 13.4456H58.523V14.4481H58.1564C57.6642 14.4481 57.4545 14.6882 57.4545 15.2945V16.4951H56.4219Z" fill="#008080"/>
<path d="M54.4104 16.5908C53.1317 16.5908 52.6875 15.8044 52.6875 14.994C52.6875 14.1897 53.1317 13.3972 54.4104 13.3972C55.6834 13.3972 56.1276 14.1897 56.1276 14.994C56.1276 15.7984 55.6834 16.5908 54.4104 16.5908ZM53.7201 14.994C53.7201 15.5944 53.9182 15.7864 54.4104 15.7864C54.8969 15.7864 55.095 15.5944 55.095 14.994C55.095 14.3937 54.8969 14.2016 54.4104 14.2016C53.9182 14.2016 53.7201 14.3937 53.7201 14.994Z" fill="#008080"/>
<path d="M50.9133 16.4949V14.2677H50.3672V13.7875L50.9133 13.4873V13.2892C50.9133 12.6889 51.2197 12.2927 51.976 12.2927H52.7984V13.0371H51.7901V13.4933H52.6484V14.2677H51.9459V16.4949H50.9133Z" fill="#008080"/>
<path d="M47.2975 16.5908C46.0789 16.5908 45.6406 15.8104 45.6406 14.9881C45.6406 14.1176 46.1449 13.3972 47.2975 13.3972C48.5221 13.3972 48.9122 14.1716 48.9122 15.006C48.9122 15.1021 48.9064 15.1921 48.8942 15.2582H46.6431C46.7032 15.7384 46.9433 15.9005 47.3215 15.9005C47.6277 15.9005 47.8137 15.7684 47.8978 15.5883H48.9001C48.8044 16.1046 48.39 16.5908 47.2975 16.5908ZM46.6551 14.6579H47.9338C47.8978 14.2797 47.7117 14.0756 47.3154 14.0756C46.9373 14.0756 46.7212 14.2256 46.6551 14.6579Z" fill="#008080"/>
<path d="M43.4062 16.4951V13.4936H44.4088V14.0939C44.5289 13.6797 44.775 13.4456 45.2552 13.4456H45.5074V14.4481H45.1412C44.6489 14.4481 44.4388 14.6882 44.4388 15.2945V16.4951H43.4062Z" fill="#008080"/>
<path d="M41.0122 16.5728C40.4119 16.5728 40.0156 16.2307 40.0156 15.7024C40.0156 15.2221 40.2137 14.904 41.0422 14.7659L41.7265 14.6458C41.9967 14.5978 42.0747 14.5258 42.0747 14.3697C42.0747 14.1897 41.9666 14.0816 41.6185 14.0816C41.2583 14.0816 41.0842 14.2256 41.0782 14.4898H40.0757C40.1057 13.8535 40.664 13.3972 41.6065 13.3972C42.5609 13.3972 43.0232 13.7874 43.0232 14.4718V15.6663C43.0232 15.9845 43.0472 16.2487 43.0772 16.4948H42.1887C42.1587 16.3207 42.1407 16.1166 42.1407 15.8705C41.9907 16.3087 41.6185 16.5728 41.0122 16.5728ZM41.0302 15.5823C41.0302 15.7924 41.1982 15.9005 41.4024 15.9005C41.7925 15.9005 42.0747 15.6244 42.0747 15.0841V14.97C41.9246 15.0781 41.7925 15.1141 41.6004 15.1621L41.4324 15.2041C41.1382 15.2762 41.0302 15.3782 41.0302 15.5823Z" fill="#008080"/>
<path d="M37.7441 16.5908C36.2013 16.5908 35.625 15.6003 35.625 14.5018C35.625 13.4333 36.2073 12.4008 37.7501 12.4008C39.1788 12.4008 39.7431 12.971 39.8272 14.1176H38.7406C38.6926 13.5773 38.4645 13.2652 37.7681 13.2652C37.0417 13.2652 36.7296 13.6794 36.7296 14.5018C36.7296 15.3122 37.0177 15.7324 37.7381 15.7324C38.4525 15.7324 38.7106 15.4323 38.7526 14.85H39.8512C39.7551 16.0746 39.2089 16.5908 37.7441 16.5908Z" fill="#008080"/>
<path d="M32.7969 16.4949V12.2927H33.8294V16.4949H32.7969Z" fill="#008080"/>
<path d="M30.3559 16.5728C29.7556 16.5728 29.3594 16.2307 29.3594 15.7024C29.3594 15.2221 29.5575 14.904 30.3859 14.7659L31.0703 14.6458C31.3404 14.5978 31.4184 14.5258 31.4184 14.3697C31.4184 14.1897 31.3104 14.0816 30.9622 14.0816C30.602 14.0816 30.4279 14.2256 30.4219 14.4898H29.4194C29.4494 13.8535 30.0077 13.3972 30.9502 13.3972C31.9047 13.3972 32.367 13.7874 32.367 14.4718V15.6663C32.367 15.9845 32.3909 16.2487 32.421 16.4948H31.5325C31.5025 16.3207 31.4845 16.1166 31.4845 15.8705C31.3344 16.3087 30.9622 16.5728 30.3559 16.5728ZM30.3739 15.5823C30.3739 15.7924 30.542 15.9005 30.7461 15.9005C31.1363 15.9005 31.4184 15.6244 31.4184 15.0841V14.97C31.2684 15.0781 31.1363 15.1141 30.9442 15.1621L30.7761 15.2041C30.482 15.2762 30.3739 15.3782 30.3739 15.5823Z" fill="#008080"/>
<path d="M27.7922 13.3973C28.7767 13.3973 29.1669 14.1537 29.1669 14.9881C29.1669 15.8465 28.7767 16.5909 27.7922 16.5909C27.2819 16.5909 26.9398 16.4048 26.7356 16.0807V16.4949H25.7031V12.2927H26.7356V13.9075C26.9398 13.5894 27.2819 13.3973 27.7922 13.3973ZM26.7356 14.9941C26.7356 15.5283 26.9157 15.7865 27.444 15.7865C27.9542 15.7865 28.1344 15.5524 28.1344 14.9941C28.1344 14.4358 27.9542 14.2017 27.444 14.2017C26.9157 14.2017 26.7356 14.4598 26.7356 14.9941Z" fill="#008080"/>
<path d="M23.676 16.5908C22.3973 16.5908 21.9531 15.8044 21.9531 14.994C21.9531 14.1897 22.3973 13.3972 23.676 13.3972C24.9487 13.3972 25.3929 14.1897 25.3929 14.994C25.3929 15.7984 24.9487 16.5908 23.676 16.5908ZM22.9857 14.994C22.9857 15.5944 23.1837 15.7864 23.676 15.7864C24.1623 15.7864 24.3604 15.5944 24.3604 14.994C24.3604 14.3937 24.1623 14.2016 23.676 14.2016C23.1837 14.2016 22.9857 14.3937 22.9857 14.994Z" fill="#008080"/>
<path d="M20.6094 16.4949V12.2927H21.6419V16.4949H20.6094Z" fill="#008080"/>
<path d="M17.8224 16.5908C16.5198 16.5908 15.9375 15.6364 15.9375 14.5018C15.9375 13.3432 16.5798 12.4008 18.1346 12.4008C19.5153 12.4008 20.0556 13.0431 20.1096 13.8235H19.0531C19.0051 13.4753 18.7109 13.2172 18.1406 13.2172C17.4262 13.2172 17.042 13.6014 17.042 14.5018C17.042 15.3482 17.3602 15.7744 18.0746 15.7744C18.795 15.7744 19.0351 15.4203 19.1011 14.9701H17.8104V14.3037H20.1036V16.4948H19.2212V15.7624C19.0651 16.1886 18.6989 16.5908 17.8224 16.5908Z" fill="#008080"/>
</svg>
